<?xml version="1.0" encoding="UTF-8" standalone="no"?>
<!-- Created with Inkscape (http://www.inkscape.org/) -->

<svg
   xmlns:dc="http://purl.org/dc/elements/1.1/"
   xmlns:cc="http://creativecommons.org/ns#"
   xmlns:rdf="http://www.w3.org/1999/02/22-rdf-syntax-ns#"
   xmlns:svg="http://www.w3.org/2000/svg"
   xmlns="http://www.w3.org/2000/svg"
   xmlns:sodipodi="http://sodipodi.sourceforge.net/DTD/sodipodi-0.dtd"
   xmlns:inkscape="http://www.inkscape.org/namespaces/inkscape"
   width="64.336464mm"
   height="65.076157mm"
   viewBox="0 0 227.96385 230.58481"
   id="svg4517"
   version="1.1"
   inkscape:version="0.91 r13725"
   sodipodi:docname="shipwreck_turnorder.svg">
  <defs
     id="defs4519" />
  <sodipodi:namedview
     id="base"
     pagecolor="#ffffff"
     bordercolor="#666666"
     borderopacity="1.0"
     inkscape:pageopacity="0.0"
     inkscape:pageshadow="2"
     inkscape:zoom="1.979899"
     inkscape:cx="107.71819"
     inkscape:cy="116.06227"
     inkscape:document-units="px"
     inkscape:current-layer="g5078"
     showgrid="false"
     fit-margin-top="0"
     fit-margin-left="0"
     fit-margin-right="0"
     fit-margin-bottom="0"
     inkscape:window-width="1920"
     inkscape:window-height="1017"
     inkscape:window-x="-8"
     inkscape:window-y="-8"
     inkscape:window-maximized="1" />
  <metadata
     id="metadata4522">
    <rdf:RDF>
      <cc:Work
         rdf:about="">
        <dc:format>image/svg+xml</dc:format>
        <dc:type
           rdf:resource="http://purl.org/dc/dcmitype/StillImage" />
        <dc:title></dc:title>
      </cc:Work>
    </rdf:RDF>
  </metadata>
  <g
     inkscape:label="Layer 1"
     inkscape:groupmode="layer"
     id="layer1"
     transform="translate(-137.62521,-355.28409)">
    <g
       id="g5078">
      <path
         inkscape:connector-curvature="0"
         id="path5076"
         d="m 349.61381,490.56246 c -3.77559,28.46183 -25.06095,59.46976 -51.14346,74.50442 -8.79116,5.06746 -10.74283,6.72302 -10.31502,8.75 0.2902,1.375 0.91737,4.6492 1.3937,7.27601 l 0.86607,4.776 -16.71822,-10.27174 c -26.11433,-16.04475 -26.34201,-16.20396 -25.67103,-17.95251 1.78894,-4.66187 25.70449,-41.91357 26.29503,-40.95805 0.38029,0.61532 1.06712,3.4682 1.52629,6.33973 0.45918,2.87154 1.2099,5.45276 1.66826,5.73604 1.34425,0.83079 12.51103,-8.52315 17.27464,-14.47025 5.04514,-6.29855 11.20761,-18.58163 12.33798,-24.59211 0.42583,-2.2643 1.19093,-3.9518 1.70021,-3.75 0.6908,0.27371 13.26231,14.83213 15.84661,18.35114 0.1956,0.26634 4.36667,-2.82741 9.26906,-6.875 4.90238,-4.04759 10.63074,-8.73365 12.72968,-10.41347 l 3.81626,-3.05423 -0.87606,6.60403 z"
         style="fill:#0c4064;fill-opacity:1"
         sodipodi:nodetypes="cssscssssssscsssccc" />
      <path
         inkscape:connector-curvature="0"
         id="path5076-7"
         d="m 282.61916,378.85592 c 5.14772,12.96451 9.14496,23.88438 8.88275,24.2664 -0.6809,0.99198 -45.51818,18.86632 -46.03335,18.35113 -0.23525,-0.23525 0.71141,-3.08522 2.10369,-6.33328 1.39227,-3.24804 2.53141,-6.14015 2.53141,-6.42693 0,-1.1464 -11.11665,-0.37379 -19.16849,1.33224 -10.47285,2.21898 -19.55933,6.30586 -27.39401,12.32119 l -5.9375,4.5587 -0.009,-4.67925 c -0.005,-2.57358 -0.37027,-8.50608 -0.81197,-13.18333 l -0.80309,-8.50408 -6.37553,0.65553 c -3.50653,0.36054 -10.87552,1.00294 -16.37552,1.42754 l -10,0.77201 5,-5.22852 c 12.65674,-13.23528 34.4801,-24.90909 54.21247,-28.99953 9.52509,-1.97451 14.90738,-2.35431 25.78753,-1.81975 7.5625,0.37155 14.91231,1.02922 16.33292,1.46149 2.2066,0.67141 3.02842,-0.25798 5.6405,-6.37874 l 3.05757,-7.16465 9.3595,23.57183 z"
         style="fill:#2d9966;fill-opacity:1"
         sodipodi:nodetypes="cccssssccscsscsssssccc" />
      <path
         inkscape:connector-curvature="0"
         id="path5076-5"
         d="m 298.2548,381.50558 c 11.73215,6.83858 27.60594,22.17731 35.37884,34.1863 6.37131,9.84358 12.23145,24.60601 15.12732,38.10766 l 2.14855,10.01734 7.33978,0.625 7.33978,0.625 -18.06227,15 c -9.93424,8.25 -18.94599,15.69111 -20.02611,16.5358 -1.68257,1.31584 -4.18805,-1.16198 -17.49294,-17.29983 -8.541,-10.35961 -15.68558,-19.25456 -15.87684,-19.76657 -0.19127,-0.51201 2.82349,-0.66795 6.69946,-0.34651 6.9328,0.57491 7.03354,0.53603 6.20467,-2.39424 -3.81171,-13.47535 -15.56785,-29.981 -26.5217,-37.23652 l -5.79123,-3.83595 6.75327,-2.9661 c 3.71431,-1.63135 8.86266,-3.72012 11.44078,-4.64169 2.57813,-0.92159 4.6875,-2.30938 4.6875,-3.08399 0,-0.77461 -1.46891,-5.02099 -3.26425,-9.43639 -6.82181,-16.77735 -7.92173,-19.90301 -7.00387,-19.90301 0.51996,0 5.43363,2.61616 10.91926,5.8137 z"
         style="fill:#cd3133;fill-opacity:1"
         sodipodi:nodetypes="ssscccssscssscssssss" />
      <path
         inkscape:connector-curvature="0"
         id="path5076-9"
         d="m 188.85365,508.68999 c 11.34375,2.92373 21.45529,5.59699 22.47009,5.94058 1.2151,0.4114 -0.19126,1.8181 -4.11885,4.11981 -5.57083,3.26472 -5.83204,3.64086 -3.9628,5.70634 2.99111,3.30515 15.23961,9.4725 23.73656,11.9518 4.125,1.20363 11.82074,2.23405 17.10161,2.28983 l 9.60161,0.10141 -2.64305,4.38356 c -1.45367,2.41096 -4.48307,7.30744 -6.73201,10.88107 l -4.08896,6.49752 13.82486,8.42608 c 12.78485,7.7922 13.60336,8.51908 10.88041,9.66227 -1.61945,0.67991 -10.81946,1.22404 -20.44446,1.20919 -13.88837,-0.0214 -19.50685,-0.57463 -27.22406,-2.68049 -14.08816,-3.84437 -28.8935,-11.5367 -40.76315,-21.17908 -5.7095,-4.63815 -11.0664,-8.9273 -11.90422,-9.53145 -0.97695,-0.70446 -3.44162,0.1125 -6.87156,2.27774 -2.94152,1.8569 -5.54117,3.18323 -5.77699,2.94741 -0.23583,-0.23582 2.2406,-11.10456 5.50316,-24.15274 5.07156,-20.28301 6.28401,-23.75607 8.35937,-23.94534 1.33509,-0.12176 11.70869,2.17076 23.05244,5.09449 z"
         style="fill:#596367;fill-opacity:1"
         sodipodi:nodetypes="sssssscsscssssssscsss" />
      <path
         inkscape:connector-curvature="0"
         id="path5076-2"
         d="m 191.88314,408.53065 c 0.57772,2.85437 3.23066,40.45479 3.22414,45.69613 -0.004,2.79566 -0.20978,2.73345 -5.25419,-1.58438 -6.10309,-5.22402 -6.59502,-4.86599 -9.34148,6.79872 -2.8511,12.10906 -1.19044,30.00049 3.84338,41.40748 0.78307,1.77451 -0.64798,1.65833 -11.30338,-0.91765 -7.23499,-1.74908 -12.49672,-2.46919 -12.92918,-1.76945 -0.40108,0.64896 -2.33562,7.76625 -4.29895,15.8162 -4.11914,16.88891 -4.31089,16.88785 -10.8468,-0.0603 -5.48619,-14.22614 -7.32642,-24.30248 -7.35133,-40.25268 -0.0254,-16.27641 3.5016,-32.43309 9.98121,-45.72237 l 4.02527,-8.25559 -5.17213,-4.67271 c -2.84466,-2.56999 -5.00252,-4.8423 -4.79525,-5.04959 0.20729,-0.20727 9.08153,-0.97924 19.72054,-1.71546 10.63901,-0.73621 21.72654,-1.60091 24.63894,-1.92155 4.70152,-0.5176 5.35851,-0.27055 5.85921,2.20326 z"
         style="fill:#a99f33;fill-opacity:1"
         sodipodi:nodetypes="ccssssssssscscsscc" />
    </g>
  </g>
</svg>
